<svg width="133" height="111" viewBox="0 0 133 111" fill="none" xmlns="http://www.w3.org/2000/svg">
<g clip-path="url(#clip0)">
<path d="M93.1532 109.792C92.9303 109.835 92.701 109.827 92.4814 109.77C92.2619 109.712 92.0576 109.607 91.883 109.461C91.7085 109.316 91.568 109.133 91.4716 108.926C91.3751 108.72 91.3251 108.494 91.3251 108.266C91.3251 108.038 91.3751 107.812 91.4716 107.606C91.568 107.399 91.7085 107.216 91.883 107.071C92.0576 106.925 92.2619 106.82 92.4814 106.763C92.701 106.705 92.9303 106.698 93.1532 106.74H118.37C118.593 106.698 118.822 106.705 119.042 106.763C119.261 106.82 119.466 106.925 119.64 107.071C119.815 107.216 119.955 107.399 120.052 107.606C120.148 107.812 120.198 108.038 120.198 108.266C120.198 108.494 120.148 108.72 120.052 108.926C119.955 109.133 119.815 109.316 119.64 109.461C119.466 109.607 119.261 109.712 119.042 109.77C118.822 109.827 118.593 109.835 118.37 109.792H93.1532Z" fill="black"/>
<path d="M93.1532 99.7242C92.9303 99.7664 92.701 99.7586 92.4814 99.7014C92.2619 99.6443 92.0576 99.539 91.883 99.3933C91.7085 99.2476 91.568 99.0649 91.4716 98.8583C91.3751 98.6517 91.3251 98.4262 91.3251 98.1979C91.3251 97.9696 91.3751 97.7442 91.4716 97.5375C91.568 97.3309 91.7085 97.1482 91.883 97.0025C92.0576 96.8568 92.2619 96.7516 92.4814 96.6944C92.701 96.6372 92.9303 96.6294 93.1532 96.6716H106.772C106.995 96.6294 107.225 96.6372 107.444 96.6944C107.664 96.7516 107.868 96.8568 108.043 97.0025C108.217 97.1482 108.358 97.3309 108.454 97.5375C108.55 97.7442 108.6 97.9696 108.6 98.1979C108.6 98.4262 108.55 98.6517 108.454 98.8583C108.358 99.0649 108.217 99.2476 108.043 99.3933C107.868 99.539 107.664 99.6443 107.444 99.7014C107.225 99.7586 106.995 99.7664 106.772 99.7242H93.1532Z" fill="black"/>
<path d="M93.1532 105.401C92.9303 105.443 92.701 105.435 92.4814 105.378C92.2619 105.321 92.0576 105.216 91.883 105.07C91.7085 104.924 91.568 104.742 91.4716 104.535C91.3751 104.328 91.3251 104.103 91.3251 103.875C91.3251 103.646 91.3751 103.421 91.4716 103.214C91.568 103.008 91.7085 102.825 91.883 102.679C92.0576 102.533 92.2619 102.428 92.4814 102.371C92.701 102.314 92.9303 102.306 93.1532 102.348H131.457C131.68 102.306 131.909 102.314 132.129 102.371C132.349 102.428 132.553 102.533 132.727 102.679C132.902 102.825 133.042 103.008 133.139 103.214C133.235 103.421 133.285 103.646 133.285 103.875C133.285 104.103 133.235 104.328 133.139 104.535C133.042 104.742 132.902 104.924 132.727 105.07C132.553 105.216 132.349 105.321 132.129 105.378C131.909 105.435 131.68 105.443 131.457 105.401H93.1532Z" fill="black"/>
<path d="M99.6436 32.7281H1.5428V60.1478H99.6436V32.7281Z" fill="white"/>
<path d="M98.1008 34.2812H3.0324V58.6483H98.1008V34.2812ZM1.5428 31.175H99.5904C99.9996 31.175 100.392 31.3387 100.681 31.6299C100.971 31.9212 101.133 32.3162 101.133 32.7281V60.1478C101.133 60.5597 100.971 60.9547 100.681 61.246C100.392 61.5372 99.9996 61.7009 99.5904 61.7009H1.5428C1.13362 61.7009 0.741207 61.5372 0.451876 61.246C0.162545 60.9547 0 60.5597 0 60.1478L0 32.7281C0 32.3162 0.162545 31.9212 0.451876 31.6299C0.741207 31.3387 1.13362 31.175 1.5428 31.175Z" fill="black"/>
<path d="M93.5256 60.1477H7.6608V108.507H93.5256V60.1477Z" fill="white"/>
<path d="M93.4724 110.007H7.6608C7.25162 110.007 6.8592 109.843 6.56987 109.552C6.28054 109.26 6.118 108.865 6.118 108.453V60.2548C6.118 59.8429 6.28054 59.4479 6.56987 59.1567C6.8592 58.8654 7.25162 58.7018 7.6608 58.7018H93.4724C93.8816 58.7018 94.274 58.8654 94.5633 59.1567C94.8527 59.4479 95.0152 59.8429 95.0152 60.2548V108.453C95.0152 108.865 94.8527 109.26 94.5633 109.552C94.274 109.843 93.8816 110.007 93.4724 110.007ZM9.1504 107.115H91.9828V61.7008H9.1504V107.115Z" fill="black"/>
<path d="M58.52 27.3727C63.1291 27.0402 67.6828 26.1594 72.086 24.7485C74.0159 24.3242 75.8242 23.462 77.373 22.2276C78.9219 20.9933 80.1704 19.4194 81.0236 17.6259C81.5944 15.4235 81.3681 13.0885 80.3852 11.0387C79.6147 9.27227 78.5128 7.67209 77.14 6.32595C75.8543 5.03539 74.2879 4.06366 72.5648 3.48759C70.9376 2.86126 69.138 2.86126 67.5108 3.48759C60.3288 6.64727 58.9988 18.3756 58.4668 27.212L58.52 27.3727ZM50.3272 30.6395C50.1043 30.6817 49.875 30.6739 49.6554 30.6167C49.4359 30.5595 49.2316 30.4543 49.057 30.3086C48.8825 30.1629 48.742 29.9802 48.6456 29.7736C48.5491 29.567 48.4991 29.3415 48.4991 29.1132C48.4991 28.8849 48.5491 28.6594 48.6456 28.4528C48.742 28.2462 48.8825 28.0635 49.057 27.9178C49.2316 27.7721 49.4359 27.6668 49.6554 27.6097C49.875 27.5525 50.1043 27.5447 50.3272 27.5869H55.6472C56.1792 18.0007 57.6156 4.77288 66.2872 0.809884C68.5978 -0.194456 71.1985 -0.290004 73.5756 0.542114C75.7403 1.27549 77.7069 2.50362 79.3212 4.13023C80.9841 5.74988 82.3208 7.67737 83.258 9.80696C84.5369 12.533 84.8012 15.6306 84.0028 18.5363C83.0307 20.7663 81.5677 22.7447 79.7244 24.322C77.8811 25.8992 75.7058 27.0339 73.3628 27.6405C68.5454 29.17 63.5613 30.1052 58.52 30.4253V32.4603C58.4535 32.8162 58.2656 33.1374 57.9887 33.3686C57.7119 33.5997 57.3635 33.7262 57.0038 33.7262C56.6441 33.7262 56.2957 33.5997 56.0189 33.3686C55.742 33.1374 55.5541 32.8162 55.4876 32.4603V30.8001L50.3272 30.6395Z" fill="black"/>
<path d="M28.7812 24.7485C33.253 26.1761 37.8792 27.0571 42.56 27.3727C42.028 18.5898 40.698 6.80793 33.516 3.64824C31.8888 3.02192 30.0892 3.02192 28.462 3.64824C26.7389 4.22431 25.1725 5.19605 23.8868 6.4866C22.514 7.83275 21.4121 9.43292 20.6416 11.1994C19.6587 13.2492 19.4324 15.5841 20.0032 17.7865C20.8589 19.5318 22.0912 21.0626 23.6099 22.2671C25.1285 23.4716 26.8954 24.3194 28.7812 24.7485ZM50.4868 27.7476C50.7097 27.7053 50.939 27.7131 51.1586 27.7703C51.3781 27.8275 51.5824 27.9327 51.757 28.0784C51.9315 28.2242 52.072 28.4069 52.1684 28.6135C52.2649 28.8201 52.3148 29.0456 52.3148 29.2738C52.3148 29.5021 52.2649 29.7276 52.1684 29.9342C52.072 30.1408 51.9315 30.3235 51.757 30.4693C51.5824 30.615 51.3781 30.7202 51.1586 30.7774C50.939 30.8346 50.7097 30.8423 50.4868 30.8001H45.5924V32.4603C45.5259 32.8162 45.338 33.1374 45.0611 33.3686C44.7843 33.5997 44.4359 33.7262 44.0762 33.7262C43.7165 33.7262 43.3681 33.5997 43.0913 33.3686C42.8144 33.1374 42.6265 32.8162 42.56 32.4603V30.4253C37.5523 30.0792 32.6045 29.1262 27.8236 27.5869C25.4806 26.9804 23.3053 25.8456 21.462 24.2684C19.6187 22.6912 18.1557 20.7128 17.1836 18.4827C16.3852 15.5771 16.6495 12.4794 17.9284 9.7534C18.7863 7.6455 20.0317 5.71955 21.5992 4.07667C23.2178 2.4679 25.1843 1.25813 27.3448 0.542106C29.6905 -0.257327 32.2462 -0.162042 34.5268 0.809877C43.4112 4.71932 44.8476 17.9472 45.1668 27.5869L50.4868 27.7476Z" fill="black"/>
<path d="M91.9828 61.7008H9.15041V69.3055H91.9828V61.7008Z" fill="#C2C2C2"/>
<path d="M49.0504 32.7281C49.1169 32.3722 49.3048 32.051 49.5817 31.8198C49.8585 31.5887 50.2069 31.4622 50.5666 31.4622C50.9263 31.4622 51.2747 31.5887 51.5515 31.8198C51.8284 32.051 52.0163 32.3722 52.0828 32.7281V108.507C52.1247 108.731 52.117 108.962 52.0602 109.183C52.0034 109.404 51.8989 109.61 51.7541 109.786C51.6093 109.961 51.4279 110.103 51.2226 110.2C51.0174 110.297 50.7934 110.347 50.5666 110.347C50.3398 110.347 50.1158 110.297 49.9106 110.2C49.7053 110.103 49.5239 109.961 49.3791 109.786C49.2343 109.61 49.1298 109.404 49.073 109.183C49.0162 108.962 49.0085 108.731 49.0504 108.507V32.7281Z" fill="black"/>
</g>
<defs>
<clipPath id="clip0">
<rect width="133" height="110" fill="white" transform="translate(0 0.0065918)"/>
</clipPath>
</defs>
</svg>
